<svg width="77" height="36" viewBox="0 0 77 36" fill="none" xmlns="http://www.w3.org/2000/svg">
<g clip-path="url(#clip0_1_82)">
<path d="M47.4214 35.52C43.9334 35.52 41.0854 34.608 38.8774 32.784C36.6694 30.96 35.3094 28.448 34.7974 25.248H41.1334C41.4214 26.944 42.1254 28.256 43.2454 29.184C44.3974 30.112 45.7414 30.576 47.2774 30.576C48.9734 30.576 50.3494 30.016 51.4054 28.896C52.4934 27.776 53.0374 26.048 53.0374 23.712C53.0374 21.44 52.5094 19.728 51.4534 18.576C50.4294 17.392 49.0534 16.8 47.3254 16.8C46.2054 16.8 45.1974 17.04 44.3014 17.52C43.4054 18 42.7334 18.672 42.2854 19.536H36.6214L38.3014 0.47998H57.6454V5.42398H40.8454L43.9174 4.55998L42.9574 16.416L41.0374 16.08C41.8054 14.896 42.7974 13.952 44.0134 13.248C45.2294 12.544 46.7654 12.192 48.6214 12.192C50.8294 12.192 52.7494 12.672 54.3814 13.632C56.0454 14.592 57.3414 15.936 58.2694 17.664C59.2294 19.36 59.7094 21.408 59.7094 23.808C59.7094 26.272 59.1974 28.384 58.1734 30.144C57.1494 31.872 55.7254 33.2 53.9014 34.128C52.0774 35.056 49.9174 35.52 47.4214 35.52Z" fill="#75D8D1"/>
<path d="M23.232 2.256C20.64 0.752 17.648 0 14.256 0V5.088C16.464 5.088 18.384 5.616 20.016 6.672C21.68 7.696 22.96 9.152 23.856 11.04C24.784 12.896 25.248 15.072 25.248 17.568C25.248 20.096 24.784 22.336 23.856 24.288C22.928 26.208 21.632 27.712 19.968 28.8C18.336 29.888 16.432 30.432 14.256 30.432L14.304 35.52C16.8 35.52 19.104 35.088 21.216 34.224C23.328 33.36 25.152 32.128 26.688 30.528C28.256 28.928 29.456 27.04 30.288 24.864C31.152 22.688 31.584 20.288 31.584 17.664C31.584 14.176 30.848 11.104 29.376 8.448C27.904 5.792 25.856 3.728 23.232 2.256Z" fill="white"/>
<path d="M3.6 31.536C6 34.192 9.536 35.52 14.208 35.52L14.256 30.432C11.728 30.432 9.76 29.664 8.352 28.128C6.944 26.56 6.24 24.192 6.24 21.024V0.47998H0V20.112C0 25.072 1.2 28.88 3.6 31.536Z" fill="white"/>
<path d="M72.0544 5.42651L73.8208 0.47998L74.7246 0.47998L73.1019 5.42651H72.0544ZM75.6694 5.42651L74.0536 0.47998L74.9984 0.47998L76.7649 5.42651H75.6694ZM72.9855 3.50973L75.7516 3.50973V4.33415H72.9855V3.50973Z" fill="white"/>
<path d="M69.8523 5.42651V1.29066L68.2434 1.29066V0.47998L72.5157 0.47998V1.29066L70.9067 1.29066V5.42651L69.8523 5.42651Z" fill="white"/>
<path d="M64.1557 5.42651V0.47998L65.21 0.47998V5.42651H64.1557ZM64.6486 5.42651V4.61583L67.8254 4.61583V5.42651L64.6486 5.42651ZM64.6486 3.29676V2.49981L67.5858 2.49981V3.29676L64.6486 3.29676ZM64.6486 1.29066V0.47998L67.7433 0.47998V1.29066L64.6486 1.29066Z" fill="white"/>
<path d="M60.5721 5.42651V4.67079H61.8455C62.0737 4.67079 62.2449 4.60896 62.359 4.4853C62.4777 4.35705 62.537 4.18072 62.537 3.95629C62.537 3.72729 62.4731 3.54637 62.3453 3.41355C62.2221 3.28073 62.0441 3.21431 61.8113 3.21431L60.5721 3.21431V2.45859L61.7565 2.45859C61.971 2.45859 62.1331 2.40821 62.2426 2.30745C62.3567 2.20211 62.4138 2.04867 62.4138 1.84715C62.4138 1.64562 62.359 1.49448 62.2495 1.39372C62.1445 1.28837 61.987 1.2357 61.7771 1.2357L60.5721 1.2357V0.47998L62.003 0.47998C62.4412 0.47998 62.7949 0.592194 63.0642 0.81662C63.3335 1.04105 63.4682 1.34562 63.4682 1.73035C63.4682 1.9731 63.4111 2.1815 63.297 2.35554C63.1829 2.52959 63.03 2.66241 62.8383 2.75401C62.6466 2.84561 62.432 2.89142 62.1947 2.89142L62.2289 2.74714C62.4845 2.74714 62.715 2.8021 62.9204 2.91203C63.1304 3.02195 63.297 3.17767 63.4202 3.3792C63.5435 3.57614 63.6051 3.80973 63.6051 4.07996C63.6051 4.35018 63.5412 4.58835 63.4134 4.79446C63.2902 4.99598 63.1144 5.15171 62.8862 5.26163C62.6625 5.37155 62.3978 5.42651 62.092 5.42651H60.5721ZM59.7094 5.42651V0.47998L60.7638 0.47998V5.42651H59.7094Z" fill="white"/>
</g>
<defs>
<clipPath id="clip0_1_82">
<rect width="77" height="36" fill="white"/>
</clipPath>
</defs>
</svg>
