<svg width="427" height="424" viewBox="0 0 427 424" fill="none" xmlns="http://www.w3.org/2000/svg">
<path d="M213.627 0.954102L204.357 29.4858L218.623 34.1211L213.627 0.954102Z" fill="#FFCC00"/>
<path d="M213.627 0.954102L222.898 29.4858L208.632 34.1211L213.627 0.954102Z" fill="#FFCC00"/>
<path d="M242.159 21.6836H212.159V36.6836L242.159 21.6836Z" fill="#FFCC00"/>
<path d="M242.159 21.6836L217.889 39.3172L209.072 27.1819L242.159 21.6836Z" fill="#FFCC00"/>
<path d="M231.261 55.2246L221.99 26.6929L207.724 31.3282L231.261 55.2246Z" fill="#FFCC00"/>
<path d="M231.261 55.2246L206.99 37.5911L215.807 25.4558L231.261 55.2246Z" fill="#FFCC00"/>
<path d="M185.096 21.6836H215.096V36.6836L185.096 21.6836Z" fill="#FFCC00"/>
<path d="M185.096 21.6836L209.366 39.3172L218.183 27.1819L185.096 21.6836Z" fill="#FFCC00"/>
<path d="M195.994 55.2246L205.265 26.6929L219.53 31.3282L195.994 55.2246Z" fill="#FFCC00"/>
<path d="M195.994 55.2246L220.265 37.5911L211.448 25.4558L195.994 55.2246Z" fill="#FFCC00"/>
<path d="M213.627 360.954L204.357 389.486L218.623 394.121L213.627 360.954Z" fill="#FFCC00"/>
<path d="M213.627 360.954L222.898 389.486L208.632 394.121L213.627 360.954Z" fill="#FFCC00"/>
<path d="M242.159 381.684H212.159V396.684L242.159 381.684Z" fill="#FFCC00"/>
<path d="M242.159 381.684L217.889 399.317L209.072 387.182L242.159 381.684Z" fill="#FFCC00"/>
<path d="M231.261 415.225L221.99 386.693L207.724 391.328L231.261 415.225Z" fill="#FFCC00"/>
<path d="M231.261 415.225L206.99 397.591L215.807 385.456L231.261 415.225Z" fill="#FFCC00"/>
<path d="M185.096 381.684H215.096V396.684L185.096 381.684Z" fill="#FFCC00"/>
<path d="M185.096 381.684L209.366 399.317L218.183 387.182L185.096 381.684Z" fill="#FFCC00"/>
<path d="M195.994 415.225L205.265 386.693L219.53 391.328L195.994 415.225Z" fill="#FFCC00"/>
<path d="M195.994 415.225L220.265 397.591L211.448 385.456L195.994 415.225Z" fill="#FFCC00"/>
<path d="M33.6274 180.954L24.3569 209.486L38.6228 214.121L33.6274 180.954Z" fill="#FFCC00"/>
<path d="M33.6274 180.954L42.898 209.486L28.6321 214.121L33.6274 180.954Z" fill="#FFCC00"/>
<path d="M62.1587 201.684H32.1587V216.684L62.1587 201.684Z" fill="#FFCC00"/>
<path d="M62.1587 201.684L37.8882 219.317L29.0714 207.182L62.1587 201.684Z" fill="#FFCC00"/>
<path d="M51.2607 235.225L41.9902 206.693L27.7244 211.328L51.2607 235.225Z" fill="#FFCC00"/>
<path d="M51.2607 235.225L26.9902 217.591L35.807 205.456L51.2607 235.225Z" fill="#FFCC00"/>
<path d="M5.09619 201.684H35.0962V216.684L5.09619 201.684Z" fill="#FFCC00"/>
<path d="M5.09619 201.684L29.3667 219.317L38.1835 207.182L5.09619 201.684Z" fill="#FFCC00"/>
<path d="M15.9941 235.225L25.2647 206.693L39.5305 211.328L15.9941 235.225Z" fill="#FFCC00"/>
<path d="M15.9941 235.225L40.2647 217.591L31.4479 205.456L15.9941 235.225Z" fill="#FFCC00"/>
<path d="M105.994 79.3403L130.264 61.7068L121.447 49.5715L105.994 79.3403Z" fill="#FFCC00"/>
<path d="M105.994 79.3403L115.264 50.8086L129.53 55.4439L105.994 79.3403Z" fill="#FFCC00"/>
<path d="M95.0957 45.7991L119.366 63.4326L128.183 51.2974L95.0957 45.7991Z" fill="#FFCC00"/>
<path d="M95.0957 45.7991H125.096V60.7991L95.0957 45.7991Z" fill="#FFCC00"/>
<path d="M123.627 25.0696L114.357 53.6013L128.623 58.2365L123.627 25.0696Z" fill="#FFCC00"/>
<path d="M123.627 25.0696L132.898 53.6013L118.632 58.2365L123.627 25.0696Z" fill="#FFCC00"/>
<path d="M141.261 79.3403L116.991 61.7068L125.807 49.5715L141.261 79.3403Z" fill="#FFCC00"/>
<path d="M141.261 79.3403L131.991 50.8086L117.725 55.4439L141.261 79.3403Z" fill="#FFCC00"/>
<path d="M152.159 45.7993L127.889 63.4329L119.072 51.2976L152.159 45.7993Z" fill="#FFCC00"/>
<path d="M152.159 45.7993H122.159V60.7993L152.159 45.7993Z" fill="#FFCC00"/>
<path d="M75.3765 145.225L66.106 116.693L51.8401 121.328L75.3765 145.225Z" fill="#FFCC00"/>
<path d="M75.3765 145.225L51.106 127.591L59.9227 115.456L75.3765 145.225Z" fill="#FFCC00"/>
<path d="M40.1094 145.225L64.3799 127.591L55.5631 115.456L40.1094 145.225Z" fill="#FFCC00"/>
<path d="M40.1094 145.225L49.3799 116.693L63.6457 121.328L40.1094 145.225Z" fill="#FFCC00"/>
<path d="M29.2114 111.684L53.4819 129.317L62.2987 117.182L29.2114 111.684Z" fill="#FFCC00"/>
<path d="M29.2114 111.684H59.2114V126.684L29.2114 111.684Z" fill="#FFCC00"/>
<path d="M86.2754 111.684L62.0049 129.317L53.1881 117.182L86.2754 111.684Z" fill="#FFCC00"/>
<path d="M86.2754 111.684H56.2754V126.684L86.2754 111.684Z" fill="#FFCC00"/>
<path d="M57.7437 90.9541L67.0142 119.486L52.7483 124.121L57.7437 90.9541Z" fill="#FFCC00"/>
<path d="M57.7437 90.9541L48.4731 119.486L62.739 124.121L57.7437 90.9541Z" fill="#FFCC00"/>
<path d="M86.2744 291.684H56.2744V306.684L86.2744 291.684Z" fill="#FFCC00"/>
<path d="M86.2744 291.684L62.0039 309.317L53.1871 297.182L86.2744 291.684Z" fill="#FFCC00"/>
<path d="M75.3765 325.225L66.106 296.693L51.8401 301.328L75.3765 325.225Z" fill="#FFCC00"/>
<path d="M75.3765 325.225L51.106 307.591L59.9227 295.456L75.3765 325.225Z" fill="#FFCC00"/>
<path d="M40.1094 325.225L64.3799 307.591L55.5631 295.456L40.1094 325.225Z" fill="#FFCC00"/>
<path d="M40.1094 325.225L49.3799 296.693L63.6457 301.328L40.1094 325.225Z" fill="#FFCC00"/>
<path d="M57.7432 270.954L67.0137 299.486L52.7478 304.121L57.7432 270.954Z" fill="#FFCC00"/>
<path d="M57.7432 270.954L48.4727 299.486L62.7385 304.121L57.7432 270.954Z" fill="#FFCC00"/>
<path d="M29.2114 291.684H59.2114V306.684L29.2114 291.684Z" fill="#FFCC00"/>
<path d="M29.2114 291.684L53.4819 309.317L62.2987 297.182L29.2114 291.684Z" fill="#FFCC00"/>
<path d="M152.159 357.568H122.159V372.568L152.159 357.568Z" fill="#FFCC00"/>
<path d="M152.159 357.568L127.889 375.202L119.072 363.066L152.159 357.568Z" fill="#FFCC00"/>
<path d="M141.261 391.109L131.991 362.577L117.725 367.213L141.261 391.109Z" fill="#FFCC00"/>
<path d="M141.261 391.109L116.991 373.476L125.807 361.34L141.261 391.109Z" fill="#FFCC00"/>
<path d="M105.994 391.109L130.265 373.476L121.448 361.34L105.994 391.109Z" fill="#FFCC00"/>
<path d="M105.994 391.109L115.265 362.577L129.531 367.213L105.994 391.109Z" fill="#FFCC00"/>
<path d="M123.628 336.839L132.898 365.37L118.633 370.006L123.628 336.839Z" fill="#FFCC00"/>
<path d="M123.628 336.839L114.357 365.37L128.623 370.006L123.628 336.839Z" fill="#FFCC00"/>
<path d="M95.0962 357.568H125.096V372.568L95.0962 357.568Z" fill="#FFCC00"/>
<path d="M95.0962 357.568L119.367 375.202L128.183 363.066L95.0962 357.568Z" fill="#FFCC00"/>
<path d="M393.628 180.954L402.898 209.486L388.633 214.121L393.628 180.954Z" fill="#FFCC00"/>
<path d="M393.628 180.954L384.357 209.486L398.623 214.121L393.628 180.954Z" fill="#FFCC00"/>
<path d="M365.097 201.684H395.097V216.684L365.097 201.684Z" fill="#FFCC00"/>
<path d="M365.097 201.684L389.367 219.317L398.184 207.182L365.097 201.684Z" fill="#FFCC00"/>
<path d="M375.995 235.225L385.265 206.693L399.531 211.328L375.995 235.225Z" fill="#FFCC00"/>
<path d="M375.995 235.225L400.265 217.591L391.448 205.456L375.995 235.225Z" fill="#FFCC00"/>
<path d="M422.159 201.684H392.159V216.684L422.159 201.684Z" fill="#FFCC00"/>
<path d="M422.159 201.684L397.889 219.317L389.072 207.182L422.159 201.684Z" fill="#FFCC00"/>
<path d="M411.261 235.225L401.991 206.693L387.725 211.328L411.261 235.225Z" fill="#FFCC00"/>
<path d="M411.261 235.225L386.991 217.591L395.807 205.456L411.261 235.225Z" fill="#FFCC00"/>
<path d="M321.262 79.3403L296.991 61.7068L305.808 49.5715L321.262 79.3403Z" fill="#FFCC00"/>
<path d="M321.262 79.3403L311.991 50.8086L297.725 55.4439L321.262 79.3403Z" fill="#FFCC00"/>
<path d="M332.16 45.7991L307.889 63.4326L299.072 51.2974L332.16 45.7991Z" fill="#FFCC00"/>
<path d="M332.16 45.7991H302.16V60.7991L332.16 45.7991Z" fill="#FFCC00"/>
<path d="M303.628 25.0696L312.898 53.6013L298.633 58.2365L303.628 25.0696Z" fill="#FFCC00"/>
<path d="M303.628 25.0696L294.357 53.6013L308.623 58.2365L303.628 25.0696Z" fill="#FFCC00"/>
<path d="M285.994 79.3403L310.265 61.7068L301.448 49.5715L285.994 79.3403Z" fill="#FFCC00"/>
<path d="M285.994 79.3403L295.265 50.8086L309.531 55.4439L285.994 79.3403Z" fill="#FFCC00"/>
<path d="M275.096 45.7993L299.367 63.4329L308.183 51.2976L275.096 45.7993Z" fill="#FFCC00"/>
<path d="M275.096 45.7993H305.096V60.7993L275.096 45.7993Z" fill="#FFCC00"/>
<path d="M351.879 145.225L361.149 116.693L375.415 121.328L351.879 145.225Z" fill="#FFCC00"/>
<path d="M351.879 145.225L376.149 127.591L367.333 115.456L351.879 145.225Z" fill="#FFCC00"/>
<path d="M387.146 145.225L362.875 127.591L371.692 115.456L387.146 145.225Z" fill="#FFCC00"/>
<path d="M387.146 145.225L377.875 116.693L363.61 121.328L387.146 145.225Z" fill="#FFCC00"/>
<path d="M398.044 111.684L373.773 129.317L364.957 117.182L398.044 111.684Z" fill="#FFCC00"/>
<path d="M398.044 111.684H368.044V126.684L398.044 111.684Z" fill="#FFCC00"/>
<path d="M340.98 111.684L365.25 129.317L374.067 117.182L340.98 111.684Z" fill="#FFCC00"/>
<path d="M340.98 111.684H370.98V126.684L340.98 111.684Z" fill="#FFCC00"/>
<path d="M369.512 90.9541L360.241 119.486L374.507 124.121L369.512 90.9541Z" fill="#FFCC00"/>
<path d="M369.512 90.9541L378.782 119.486L364.516 124.121L369.512 90.9541Z" fill="#FFCC00"/>
<path d="M340.981 291.684H370.981V306.684L340.981 291.684Z" fill="#FFCC00"/>
<path d="M340.981 291.684L365.251 309.317L374.068 297.182L340.981 291.684Z" fill="#FFCC00"/>
<path d="M351.879 325.225L361.149 296.693L375.415 301.328L351.879 325.225Z" fill="#FFCC00"/>
<path d="M351.879 325.225L376.149 307.591L367.333 295.456L351.879 325.225Z" fill="#FFCC00"/>
<path d="M387.146 325.225L362.875 307.591L371.692 295.456L387.146 325.225Z" fill="#FFCC00"/>
<path d="M387.146 325.225L377.875 296.693L363.61 301.328L387.146 325.225Z" fill="#FFCC00"/>
<path d="M369.512 270.954L360.242 299.486L374.508 304.121L369.512 270.954Z" fill="#FFCC00"/>
<path d="M369.512 270.954L378.783 299.486L364.517 304.121L369.512 270.954Z" fill="#FFCC00"/>
<path d="M398.044 291.684H368.044V306.684L398.044 291.684Z" fill="#FFCC00"/>
<path d="M398.044 291.684L373.773 309.317L364.957 297.182L398.044 291.684Z" fill="#FFCC00"/>
<path d="M275.097 357.568H305.097V372.568L275.097 357.568Z" fill="#FFCC00"/>
<path d="M275.097 357.568L299.367 375.202L308.184 363.066L275.097 357.568Z" fill="#FFCC00"/>
<path d="M285.995 391.109L295.265 362.577L309.531 367.213L285.995 391.109Z" fill="#FFCC00"/>
<path d="M285.995 391.109L310.265 373.476L301.448 361.34L285.995 391.109Z" fill="#FFCC00"/>
<path d="M321.262 391.109L296.991 373.476L305.808 361.34L321.262 391.109Z" fill="#FFCC00"/>
<path d="M321.262 391.109L311.991 362.577L297.725 367.213L321.262 391.109Z" fill="#FFCC00"/>
<path d="M303.628 336.839L294.357 365.37L308.623 370.006L303.628 336.839Z" fill="#FFCC00"/>
<path d="M303.628 336.839L312.898 365.37L298.633 370.006L303.628 336.839Z" fill="#FFCC00"/>
<path d="M332.16 357.568H302.16V372.568L332.16 357.568Z" fill="#FFCC00"/>
<path d="M332.16 357.568L307.889 375.202L299.072 363.066L332.16 357.568Z" fill="#FFCC00"/>
</svg>
