<svg width="132" height="132" viewBox="0 0 132 132" fill="none" xmlns="http://www.w3.org/2000/svg">
<path d="M17.3125 125.33C27.1198 120.67 51.4857 108.727 57.69 102.265C76.1901 107.265 107.59 119.365 85.1901 127.765C64.813 135.406 34.4926 128.731 17.7517 127.463C16.6816 127.382 16.3432 125.791 17.3125 125.33Z" fill="#fbbf24"/>
<path d="M65.6904 0.26416C101.865 0.26416 131.19 29.5897 131.19 65.7642C131.19 101.939 101.865 131.264 65.6904 131.264C29.5158 131.264 0.19043 101.939 0.19043 65.7642C0.190628 29.5897 29.5159 0.26416 65.6904 0.26416ZM60.8662 32.7642C61.6272 36.1031 61.3294 39.6018 60.0156 42.7583C57.421 49.0589 54.7257 49.5183 53.0488 58.0464C52.5374 60.6727 52.2567 63.3402 52.2119 66.0171C49.31 63.7846 47.5943 57.738 46.4893 49.7622C43.9002 52.3518 41.8167 55.4162 40.3486 58.7935C36.5959 67.3558 35.8848 73.7448 39.8682 82.312C42.6406 88.2954 47.0279 92.0022 53.5723 92.7642C52.6402 90.913 52.4043 88.471 52.8271 85.5405C53.1692 82.4642 54.4999 79.5882 56.6133 77.3589C56.735 79.5003 57.4924 81.5543 58.7852 83.2495C60.0008 73.3099 64.7389 65.4901 69.8369 64.5913C69.4232 66.4254 69.5914 68.3457 70.3174 70.0767C71.7589 73.5347 73.2386 73.7842 74.1611 78.4634C74.4485 79.9113 74.6093 81.3822 74.6416 82.8589C76.2369 81.6329 77.1739 78.3359 77.7793 73.9399C79.1836 75.3631 80.3102 77.044 81.0996 78.8931C83.0696 83.416 83.522 86.835 81.6289 91.231C90.1383 88.5103 93.3579 81.5888 91.8203 70.9263C91.0611 65.3581 89.0283 60.2831 84.9248 56.019C84.7074 59.9262 83.3269 63.6742 80.9658 66.7651C78.7988 48.6489 70.1639 34.4004 60.8662 32.7642Z" fill="#fbbf24"/>
</svg>
