<svg width="31" height="27" viewBox="0 0 31 27" fill="none" xmlns="http://www.w3.org/2000/svg">
<g clip-path="url(#clip0_9_143)">
<path fill-rule="evenodd" clip-rule="evenodd" d="M7.56257 -0.00012207H15.0766L15.4766 7.07888H13.9166L12.1296 1.43988L5.53057 1.43888C6.16657 0.906877 6.84557 0.424878 7.56257 -0.00012207ZM4.30457 2.58288C4.29357 2.99188 4.28457 3.41088 4.27657 3.83888C4.24957 5.22588 4.23657 6.63888 4.23657 8.07888V12.2399H9.11857L10.0766 8.51888H11.3166V17.4399H10.0766L9.13757 13.7189H4.23657V18.3199C4.23657 19.8129 4.24957 21.2659 4.27657 22.6799C4.28457 23.1109 4.29457 23.5339 4.30557 23.9469C1.63957 21.1759 -0.000427246 17.4099 -0.000427246 13.2649C-0.000427246 9.11988 1.63957 5.35488 4.30457 2.58288ZM5.56457 25.1199H12.8406L14.6366 19.2399H16.1966L15.7966 26.5599H7.61157C6.88957 26.1349 6.20557 25.6519 5.56457 25.1199Z" fill="#FBBF24"/>
<path fill-rule="evenodd" clip-rule="evenodd" d="M29.4196 19.7129H27.1246V18.6249L29.1396 18.2509C29.1406 18.1049 29.1416 17.9519 29.1416 17.7929C29.1626 16.9829 29.1726 16.1509 29.1726 15.2969C29.1946 14.4439 29.2056 13.6759 29.2056 12.9929V9.92087C29.2056 8.68387 29.0236 7.83087 28.6606 7.36087C28.3196 6.89187 27.7546 6.65687 26.9656 6.65687C26.4956 6.65687 26.0266 6.74287 25.5576 6.91287C25.0876 7.06287 24.6076 7.30787 24.1176 7.64887C23.8566 7.82687 23.5906 8.03287 23.3166 8.26987V15.2969L23.3816 17.7929C23.3856 17.9589 23.3896 18.1179 23.3946 18.2699L25.2686 18.6249V19.7129H17.5886V18.6249L19.6356 18.2489C19.6366 18.1029 19.6366 17.9509 19.6366 17.7929C19.6586 16.9829 19.6686 16.1509 19.6686 15.2969C19.6906 14.4229 19.7016 13.6549 19.7016 12.9929V11.4249C19.7016 10.8279 19.6906 10.3159 19.6686 9.88887C19.6686 9.44087 19.6586 9.02487 19.6366 8.64087C19.6366 8.25687 19.6266 7.84087 19.6056 7.39287L17.3966 7.04087V6.04887L22.6126 4.19287L23.0936 4.51287L23.2556 7.01287C23.6746 6.53887 24.1116 6.12087 24.5646 5.76087C25.1836 5.24887 25.8346 4.86487 26.5166 4.60887C26.9816 4.42587 27.4466 4.30287 27.9116 4.24087C29.7486 6.77887 30.8316 9.89587 30.8316 13.2649C30.8316 15.5669 30.3256 17.7509 29.4196 19.7129Z" fill="#FBBF24"/>
<path d="M15.4325 17.5919C14.9475 17.5919 14.5175 17.5359 14.1445 17.4239C13.7715 17.3119 13.4395 17.1619 13.1505 16.9759C12.8615 16.7799 12.6095 16.5739 12.3945 16.3599L13.1365 15.3239C13.4075 15.5759 13.7105 15.7999 14.0465 15.9959C14.3825 16.1819 14.7745 16.2759 15.2225 16.2759C15.5585 16.2759 15.8525 16.2099 16.1045 16.0799C16.3655 15.9399 16.5715 15.7439 16.7205 15.4919C16.8695 15.2299 16.9445 14.9219 16.9445 14.5679C16.9445 14.0359 16.7905 13.6249 16.4825 13.3359C16.1835 13.0459 15.7915 12.9019 15.3065 12.9019C15.0265 12.9019 14.7835 12.9439 14.5785 13.0279C14.3825 13.1019 14.1495 13.2279 13.8785 13.4059L13.1085 12.9159L13.3745 8.5199H18.1345V9.8779H14.7745L14.5925 12.0339C14.7795 11.9399 14.9615 11.8699 15.1385 11.8239C15.3255 11.7679 15.5355 11.7399 15.7685 11.7399C16.2725 11.7399 16.7345 11.8419 17.1545 12.0479C17.5835 12.2439 17.9245 12.5469 18.1765 12.9579C18.4375 13.3679 18.5685 13.8909 18.5685 14.5259C18.5685 15.1789 18.4195 15.7339 18.1205 16.1919C17.8315 16.6489 17.4485 16.9989 16.9725 17.2419C16.4965 17.4749 15.9835 17.5919 15.4325 17.5919Z" fill="#FBBF24"/>
</g>
<defs>
<clipPath id="clip0_9_143">
<rect width="31" height="27" fill="white"/>
</clipPath>
</defs>
</svg>
