<svg width="40" height="40" viewBox="0 0 40 40" fill="none" xmlns="http://www.w3.org/2000/svg">
<path d="M18.9561 13.7852H5.37988L4.33984 29.6973L5.12012 30.1133C6.02135 29.6974 6.92299 29.4028 7.82422 29.2295C8.75992 29.0562 9.66093 28.9698 10.5273 28.9697C12.1219 28.9697 13.4395 29.3507 14.4795 30.1133C15.5542 30.8759 16.3521 31.899 16.8721 33.1816C17.4266 34.4295 17.7041 35.7986 17.7041 37.2891C17.7041 37.9714 17.6494 38.6374 17.5479 39.2881C7.78392 38.1416 0.208008 29.8415 0.208008 19.7695C0.208008 9.21819 8.52195 0.610444 18.9561 0.135742V13.7852ZM23.5645 0.461914C32.6514 2.19279 39.5205 10.1785 39.5205 19.7695C39.5205 29.5435 32.3867 37.649 23.042 39.168C23.1564 38.4905 23.2158 37.7778 23.2158 37.0293C23.2158 34.8453 22.7475 33.0253 21.8115 31.5693C20.8756 30.0788 19.576 28.9692 17.9121 28.2412C16.2828 27.4785 14.3754 27.0977 12.1914 27.0977C10.8396 27.0977 9.53984 27.2364 8.29199 27.5137C7.42338 27.6874 6.56374 27.9504 5.71289 28.3018L6.39355 18.2568H15.916V18.2598H34.4756L34.7324 12.2441H32.4922L31.5498 16.084H23.5645V8.5H27.7568L28.2998 11.0596H30.4443V3.7959H28.2998L27.7568 6.35547H23.5645V0.461914Z" fill="#E99D2C"/>
</svg>
